<svg xmlns="http://www.w3.org/2000/svg" xmlns:xlink="http://www.w3.org/1999/xlink" width="150" height="109.722" viewBox="0 0 150 109.722">
  <defs>
    <linearGradient id="linear-gradient" x1="0.001" y1="0.501" x2="1" y2="0.501" gradientUnits="objectBoundingBox">
      <stop offset="0" stop-color="#fdd204"/>
      <stop offset="0" stop-color="#f9b40d"/>
      <stop offset="0.1" stop-color="#f69a15"/>
      <stop offset="0.2" stop-color="#f4871b"/>
      <stop offset="0.3" stop-color="#f37b1e"/>
      <stop offset="0.4" stop-color="#f37820"/>
      <stop offset="0.7" stop-color="#dd1f26"/>
      <stop offset="1" stop-color="#9e1d20"/>
    </linearGradient>
    <linearGradient id="linear-gradient-2" x1="-0.001" y1="0.5" x2="1.001" y2="0.5" xlink:href="#linear-gradient"/>
    <linearGradient id="linear-gradient-3" x1="0" y1="0.5" x2="1" y2="0.5" xlink:href="#linear-gradient"/>
  </defs>
  <g id="Group_36" data-name="Group 36" transform="translate(-582 334)">
    <g id="Group_34" data-name="Group 34" transform="translate(605.25 -334)">
      <path id="Path_4" data-name="Path 4" d="M228.275,41.255a.727.727,0,0,1,.562-.075c6.975-.15,12.487-4.688,12.9-11.85.637-11.213-10.687-17.137-20.062-11.362-4.275,2.625-7.988,6.338-11.625,9.712l-7.95-8.287c.863-.937,1.8-1.875,2.7-2.775,7.912-7.5,17.25-13.725,28.762-11.55a24.012,24.012,0,0,1,18.75,18.3c1.387,6.375.338,12.788-5.287,16.688-5.4,3.75-12.863,3.563-18.788,1.2Z" transform="translate(-149.703 -2.896)" fill="url(#linear-gradient)"/>
      <path id="Path_5" data-name="Path 5" d="M86.871,22.02l-.075.075-1.725.075c-7.913.712-12.788,7.575-11.363,15.337,1.688,9.112,11.7,12.675,19.425,7.988a67.881,67.881,0,0,0,12.037-9.937l7.95,8.287c-.862.938-1.763,1.875-2.662,2.738C104.983,51.795,98.5,56.82,90.846,58.207A23.835,23.835,0,0,1,66.883,48.72c-5.4-7.425-7.088-19.688,1.388-25.613,5.362-3.75,12.75-3.375,18.638-1.087Z" transform="translate(-62.373 -12.685)" fill="url(#linear-gradient-2)"/>
      <path id="Path_6" data-name="Path 6" d="M166.688,32.592c.075-.075.112,0,.075.075-5.775,14.138-21.6,18.6-34.838,11.588-17.212-9.15-28.612-34.8-49.65-35.775-5.7-.263-11.4,1.575-14.738,6.375-.112.075-.112,0-.075-.112A23.774,23.774,0,0,1,92.25.155c14.7,1.613,24.938,16.125,34.8,25.65,7.725,7.462,17.963,15.113,29.438,13.05,3.9-.713,7.987-2.888,10.2-6.225Z" transform="translate(-65.54 -0.008)" fill="url(#linear-gradient-3)"/>
    </g>
    <g id="Group_35" data-name="Group 35" transform="translate(582 -273.741)">
      <g id="Group_31" data-name="Group 31" transform="translate(0 0)">
        <path id="Path_7" data-name="Path 7" d="M8.288,160.7l13.538,29.4,13.65-29.4h8.288L26.7,196.25H16.95L0,160.7Z" transform="translate(0 -160.7)" fill="#636466"/>
        <path id="Path_8" data-name="Path 8" d="M131.8,170.675V196.25h7.613V160.7H131.8v9.975Z" transform="translate(-82.375 -160.7)" fill="#636466"/>
        <path id="Path_9" data-name="Path 9" d="M336.337,196.375h-7.612l-22.913-26.213v26.213H298.2V160.9h7.612l22.913,26.325V160.9h7.612Z" transform="translate(-186.375 -160.825)" fill="#636466"/>
        <path id="Path_10" data-name="Path 10" d="M193.4,162.2h-8.737L167.3,197.188h8.138l2.512-5.363,1.125-2.362H198.95l1.125,2.362h0l2.512,5.363h8.137L193.438,162.2Zm3.412,22.875H181.175l7.838-16.612Z" transform="translate(-104.563 -161.638)" fill="#636466"/>
      </g>
      <g id="Group_32" data-name="Group 32" transform="translate(16.537 41.738)">
        <path id="Path_11" data-name="Path 11" d="M44.1,279.738V272.5h2.663a3.362,3.362,0,0,1,1.163.15,1.665,1.665,0,0,1,.712.45,1.592,1.592,0,0,1,.375.637,2.665,2.665,0,0,1,.112.788,1.7,1.7,0,0,1-.262,1.012,2.065,2.065,0,0,1-.638.637,1.834,1.834,0,0,1-.9.3,4.6,4.6,0,0,1-1.012.075H44.775v3.188Zm2.287-3.788a3.083,3.083,0,0,0,.863-.075,1.421,1.421,0,0,0,.638-.225,1.19,1.19,0,0,0,.412-.45,1.486,1.486,0,0,0,.15-.75A1.309,1.309,0,0,0,48,273.4a2.17,2.17,0,0,0-1.425-.337H44.813v2.887Z" transform="translate(-44.1 -272.313)" fill="#636466"/>
        <path id="Path_12" data-name="Path 12" d="M83.275,276.537v3.3H82.6V272.6h2.85a3.163,3.163,0,0,1,1.838.45,1.7,1.7,0,0,1,.637,1.462,1.468,1.468,0,0,1-.262,1.087,2.182,2.182,0,0,1-.9.675.954.954,0,0,1,.488.337,1.236,1.236,0,0,1,.263.488,1.5,1.5,0,0,1,.112.562v1.275a.812.812,0,0,0,.075.45.54.54,0,0,0,.075.262c0,.075.075.113.113.15v.075h-.75a1.246,1.246,0,0,1-.15-.488,4.135,4.135,0,0,0-.075-.675,4.073,4.073,0,0,0-.037-.675c-.038-.225,0-.413-.038-.525a1.249,1.249,0,0,0-.187-.45.6.6,0,0,0-.338-.262,1.687,1.687,0,0,0-.413-.113H83.275Zm2.138-.6a2.2,2.2,0,0,0,.713-.075,1.964,1.964,0,0,0,.562-.263,1.1,1.1,0,0,0,.375-.45,1.233,1.233,0,0,0,.15-.637,1.372,1.372,0,0,0-.15-.675,1.34,1.34,0,0,0-.375-.413,1.273,1.273,0,0,0-.562-.225,3.708,3.708,0,0,0-.675-.075H83.275V275.9h2.138Z" transform="translate(-68.162 -272.375)" fill="#636466"/>
        <path id="Path_13" data-name="Path 13" d="M121.8,275.825a5.017,5.017,0,0,1,.225-1.5,4.071,4.071,0,0,1,.638-1.2,3.785,3.785,0,0,1,1.05-.825,2.949,2.949,0,0,1,1.425-.3,3.959,3.959,0,0,1,1.5.3,2.856,2.856,0,0,1,1.05.825,3.356,3.356,0,0,1,.638,1.2,4.837,4.837,0,0,1,.225,1.5,4.6,4.6,0,0,1-.225,1.462,4.071,4.071,0,0,1-.638,1.2,3.2,3.2,0,0,1-1.05.825,3.717,3.717,0,0,1-2.925,0,2.859,2.859,0,0,1-1.05-.825,3.356,3.356,0,0,1-.638-1.2A4.6,4.6,0,0,1,121.8,275.825Zm3.375,3.225a2.367,2.367,0,0,0,1.2-.262,2.523,2.523,0,0,0,.825-.713,3.164,3.164,0,0,0,.487-1.012,4.213,4.213,0,0,0,.15-1.2,5.574,5.574,0,0,0-.187-1.35,2.591,2.591,0,0,0-.525-1.012,2.084,2.084,0,0,0-.863-.638,2.746,2.746,0,0,0-1.125-.225,2.565,2.565,0,0,0-1.2.262,2.526,2.526,0,0,0-.825.713,3.17,3.17,0,0,0-.488,1.012,4.217,4.217,0,0,0-.15,1.2,4.659,4.659,0,0,0,.15,1.237,2.827,2.827,0,0,0,.488,1.012,2.364,2.364,0,0,0,2.063.975Z" transform="translate(-92.662 -272)" fill="#636466"/>
        <path id="Path_14" data-name="Path 14" d="M165.3,279.738V272.5h2.663a3.361,3.361,0,0,1,1.162.15,1.665,1.665,0,0,1,.713.45,1.591,1.591,0,0,1,.375.637,2.662,2.662,0,0,1,.113.788,1.7,1.7,0,0,1-.263,1.012,2.064,2.064,0,0,1-.637.637,1.833,1.833,0,0,1-.9.3,4.6,4.6,0,0,1-1.012.075h-1.537v3.188Zm2.25-3.788a3.083,3.083,0,0,0,.863-.075,1.421,1.421,0,0,0,.637-.225,1.19,1.19,0,0,0,.412-.45,1.485,1.485,0,0,0,.15-.75,1.309,1.309,0,0,0-.45-1.05,2.42,2.42,0,0,0-1.425-.337h-1.763v2.887Z" transform="translate(-119.85 -272.313)" fill="#636466"/>
        <path id="Path_15" data-name="Path 15" d="M203.8,279.738V272.5h4.837v.6h-4.125v2.625h3.75v.6h-3.75v2.887h4.238v.6h-4.912Z" transform="translate(-143.913 -272.313)" fill="#636466"/>
        <path id="Path_16" data-name="Path 16" d="M242.875,276.537v3.3H242.2V272.6h2.85a3.163,3.163,0,0,1,1.837.45,1.7,1.7,0,0,1,.638,1.462,1.467,1.467,0,0,1-.263,1.087,2.182,2.182,0,0,1-.9.675.954.954,0,0,1,.488.337,1.239,1.239,0,0,1,.262.488,1.5,1.5,0,0,1,.113.562v1.275a.812.812,0,0,0,.075.45.541.541,0,0,0,.075.262c0,.075.075.113.113.15v.075h-.75a1.245,1.245,0,0,1-.15-.488,4.128,4.128,0,0,0-.075-.675,4.06,4.06,0,0,0-.038-.675c-.037-.225,0-.413-.037-.525a1.248,1.248,0,0,0-.187-.45.6.6,0,0,0-.337-.262,1.687,1.687,0,0,0-.413-.113h-2.625Zm2.137-.6a2.2,2.2,0,0,0,.713-.075,1.967,1.967,0,0,0,.563-.263,1.1,1.1,0,0,0,.375-.45,1.235,1.235,0,0,0,.15-.637,1.375,1.375,0,0,0-.15-.675,1.343,1.343,0,0,0-.375-.413,1.275,1.275,0,0,0-.562-.225,3.708,3.708,0,0,0-.675-.075h-2.175V275.9h2.137Z" transform="translate(-167.912 -272.375)" fill="#636466"/>
        <path id="Path_17" data-name="Path 17" d="M280.3,272.5h5.287v.6H283.3v6.675h-.675V273.1h-2.287v-.6Z" transform="translate(-191.725 -272.313)" fill="#636466"/>
        <path id="Path_18" data-name="Path 18" d="M319.6,279.738V272.5h.675v7.238Z" transform="translate(-216.287 -272.313)" fill="#636466"/>
        <path id="Path_19" data-name="Path 19" d="M348.4,279.738V272.5h4.838v.6h-4.125v2.625h3.75v.6h-3.75v2.887h4.238v.6h-4.912Z" transform="translate(-234.288 -272.313)" fill="#636466"/>
        <path id="Path_20" data-name="Path 20" d="M386.537,277.475a1.783,1.783,0,0,0,.225.825,1.663,1.663,0,0,0,.45.563,2,2,0,0,0,.638.3,2.493,2.493,0,0,0,.788.112,2.744,2.744,0,0,0,.825-.112,1.483,1.483,0,0,0,.9-.825,1.506,1.506,0,0,0,.113-.562,1.4,1.4,0,0,0-.187-.675,1.3,1.3,0,0,0-.488-.412,3.132,3.132,0,0,0-.713-.262,5.332,5.332,0,0,0-.825-.188c-.262-.075-.562-.15-.825-.225a2.488,2.488,0,0,1-.713-.338,1.4,1.4,0,0,1-.488-.562,1.959,1.959,0,0,1-.187-.863,1.342,1.342,0,0,1,.15-.712,2.461,2.461,0,0,1,.45-.638,1.981,1.981,0,0,1,.788-.45,3.1,3.1,0,0,1,1.05-.15,3.483,3.483,0,0,1,1.088.187,1.923,1.923,0,0,1,1.2,1.125,2.021,2.021,0,0,1,.15.825h-.637a1.428,1.428,0,0,0-.15-.713,1.308,1.308,0,0,0-.413-.487,2.683,2.683,0,0,0-.562-.3,2.072,2.072,0,0,0-.675-.075,1.972,1.972,0,0,0-.863.15,2.1,2.1,0,0,0-.562.375,1.468,1.468,0,0,0-.3.525.956.956,0,0,0,0,.563,1.03,1.03,0,0,0,.3.562,1.568,1.568,0,0,0,.525.338c.225.075.45.15.713.225s.525.113.787.188l.788.225a1.893,1.893,0,0,1,.675.338,1.656,1.656,0,0,1,.45.562,1.951,1.951,0,0,1,.188.863,1.859,1.859,0,0,1-.712,1.575,3.02,3.02,0,0,1-1.95.563,1.894,1.894,0,0,1-1.05-.15,2.469,2.469,0,0,1-.825-.45,2.315,2.315,0,0,1-.562-.75,2.917,2.917,0,0,1-.187-1.05h.675Z" transform="translate(-257.725 -272.187)" fill="#636466"/>
      </g>
    </g>
  </g>
</svg>
