<svg xmlns="http://www.w3.org/2000/svg" xmlns:xlink="http://www.w3.org/1999/xlink" width="186" height="92" viewBox="0 0 186 92">
  <defs>
    <linearGradient id="linear-gradient" x1="0.121" y1="0.788" x2="0.881" y2="0.853" gradientUnits="objectBoundingBox">
      <stop offset="0" stop-color="#f47920"/>
      <stop offset="1" stop-color="#e31f2b"/>
    </linearGradient>
    <clipPath id="clip-path">
      <rect id="Rectangle_103" data-name="Rectangle 103" width="186" height="92" transform="translate(867 6357)" fill="url(#linear-gradient)"/>
    </clipPath>
  </defs>
  <g id="Mask_Group_9" data-name="Mask Group 9" transform="translate(-867 -6357)" clip-path="url(#clip-path)">
    <g id="Group_101" data-name="Group 101" transform="translate(924 6364)">
      <path id="Path_90" data-name="Path 90" d="M68.132,143.845H83.164a12.178,12.178,0,0,1,1.356.573,4.544,4.544,0,0,1,.184,7.722,4.616,4.616,0,0,1-1.286,6.43A4.616,4.616,0,0,1,82.132,165a4.591,4.591,0,0,1-3.31,7.136c-6.031-.25-12.333.339-18.332.008-3.386-.186-6.527-1.34-9.788-2.108a2.818,2.818,0,0,1-2.1,2.1h-4.26c.249,1.717-.386,3.626-2.327,3.862-3.367.411-7.6-.284-11.059-.041a2.7,2.7,0,0,1-1.975-1.883L28.9,142.472A2.588,2.588,0,0,1,31.09,140c3.444.3,7.721-.455,11.064,0,1.885.256,2.412,2.2,2.185,3.844H48.76c.388,0,1.528.775,1.53,1.285l.233,0c2.752-2.594,5.7-4.451,7.121-8.153,1.4-3.665.011-9.567,5.9-9.855,4.277-.209,5.519,3.107,5.875,6.679a20.813,20.813,0,0,1-1.286,10.047m-17.34,23.449c3.166.886,6.38,2.087,9.7,2.28,5.882.342,12.095-.269,18.012-.007a1.937,1.937,0,0,0,.768-3.661c-.864-.411-2.347-.016-2.131-1.71.2-1.6,2.272-.8,3.3-1.208a1.938,1.938,0,0,0,.113-3.513c-.864-.411-2.347-.016-2.131-1.709.2-1.561,2.158-.845,3.186-1.166a1.936,1.936,0,0,0,.231-3.555c-.867-.412-2.346-.015-2.131-1.71.184-1.448,1.837-.941,2.8-1.074a1.931,1.931,0,0,0-.146-3.843c-4.983-.568-11.021.469-16.084.008-2.494-.227-.828-2.489-.392-3.783a20.721,20.721,0,0,0,.784-10.274c-.68-3.721-5.2-3.277-5.595-.325a31.183,31.183,0,0,1-.542,4.441c-1.441,5.449-5.826,8.226-9.731,11.812Zm-9.026-24.735H31.478v30.867H41.767Zm6.431,3.858H44.339v23.15H48.2Z" transform="translate(-22.467 -98.82)" fill="url(#linear-gradient)"/>
      <path id="Path_91" data-name="Path 91" d="M116.5.042A1.3,1.3,0,0,1,117.972.6l3.076,7.052,7.763.758a1.315,1.315,0,0,1,.526,2.222l-5.691,4.932c-.047,1.687,2.073,6.97,1.5,8.241-.441.979-1.481.576-2.17.246-2.03-.973-3.979-2.623-6.052-3.583l-7.208,3.991c-1.142-.185-1.3-.789-1.188-1.842.136-1.335,1.769-6.279,1.566-7.054l-6.014-5.414a1.313,1.313,0,0,1,.723-1.7l7.887-.795,3.291-7.32A1.222,1.222,0,0,1,116.5.042m.524,4.792c-.368-.078-.256.04-.359.2-.6.95-1.6,4.489-2.285,4.946a2.953,2.953,0,0,1-1.133.314c-1.5.217-3.218.173-4.741.325.673,1.1,3.932,2.961,4.269,4.008.345,1.072-1.3,5.474-1.052,5.8,1.228-.448,3.957-2.787,5.088-2.847.932-.05,4.116,2.436,5.2,2.847.189-.241-1.4-4.8-1.09-5.835.259-.855,3.69-3,4.307-3.97-1.523-.152-3.244-.108-4.741-.325a2.953,2.953,0,0,1-1.133-.314c-.693-.46-1.833-4.212-2.328-5.15" transform="translate(-80.851 0)" fill="url(#linear-gradient)"/>
      <path id="Path_92" data-name="Path 92" d="M15.322,47.139a3.024,3.024,0,0,0,.844.2c1.257.134,5.882.167,6.594.8a1.347,1.347,0,0,1,.026,1.883l-5.071,4.34c.23,1.967,1.211,4.174,1.406,6.1.123,1.211-.257,1.991-1.593,1.759l-6-3.429L5.752,62.17A1.323,1.323,0,0,1,3.92,60.956l1.518-6.6L.252,49.911c-.781-1.709.375-2.039,1.786-2.227.927-.124,5.408-.221,5.805-.545l2.58-6.021a1.307,1.307,0,0,1,2.264-.105Zm-1.761,2.243c-.655-.611-1.348-3.4-1.9-4.29-.814.849-1.357,3.822-2.174,4.417-.732.533-3.918.365-4.98.568.632.87,3.358,2.5,3.63,3.368s-1.1,4.571-.9,4.829c1.147-.365,3.193-2.22,4.255-2.267,1.276-.057,3.2,1.781,4.423,2.267.238-.311-1.134-3.877-.86-4.794.3-1.011,2.946-2.413,3.594-3.4-1.083-.183-4.384-.032-5.095-.695" transform="translate(0 -31.416)" fill="url(#linear-gradient)"/>
      <path id="Path_93" data-name="Path 93" d="M234.933,47.143a2.98,2.98,0,0,0,.843.2c1.257.134,5.882.168,6.594.8a1.191,1.191,0,0,1,.371,1.172c-.237,1.142-4.571,3.905-5.412,5.053-.16.692,1.282,4.908,1.4,6.094.123,1.212-.256,1.991-1.593,1.759l-6-3.427-5.776,3.377a1.323,1.323,0,0,1-1.832-1.214l1.531-6.591-5.029-4.3c-1.06-1.742.059-2.171,1.616-2.379.927-.124,5.407-.221,5.8-.545l2.58-6.021a1.3,1.3,0,0,1,2.261-.1Zm-1.767,2.249c-.662-.681-1.276-3.379-1.892-4.3-.783.894-1.329,3.8-2.174,4.417-.7.513-3.946.4-4.98.568.663.911,3.325,2.423,3.627,3.366.288.9-1.079,4.593-.892,4.831,1.26-.437,3.152-2.305,4.421-2.264,1.1.035,3.135,1.825,4.257,2.264.223-.291-1.167-3.948-.894-4.829.25-.807,3.078-2.467,3.629-3.368-1-.161-4.5-.068-5.1-.689" transform="translate(-170.737 -31.419)" fill="url(#linear-gradient)"/>
    </g>
  </g>
</svg>
