<svg xmlns="http://www.w3.org/2000/svg" xmlns:xlink="http://www.w3.org/1999/xlink" width="186" height="92" viewBox="0 0 186 92">
  <defs>
    <linearGradient id="linear-gradient" x1="0.121" y1="0.788" x2="0.881" y2="0.853" gradientUnits="objectBoundingBox">
      <stop offset="0" stop-color="#f47920"/>
      <stop offset="1" stop-color="#e31f2b"/>
    </linearGradient>
    <clipPath id="clip-path">
      <rect id="Rectangle_104" data-name="Rectangle 104" width="186" height="92" transform="translate(1271 6357)" fill="url(#linear-gradient)"/>
    </clipPath>
  </defs>
  <g id="Mask_Group_8" data-name="Mask Group 8" transform="translate(-1271 -6357)" clip-path="url(#clip-path)">
    <g id="Group_102" data-name="Group 102" transform="translate(1334.088 6362.784)">
      <path id="Path_94" data-name="Path 94" d="M54.819,11.249c0-1.876.411-4.252-1.859-4.912l-15.82-.057C36.5,5.676,35.965,5,34.972,5.016l-17.746.015A6.467,6.467,0,0,0,12.153.042a10.576,10.576,0,0,0-1.869,0A6.5,6.5,0,0,0,5.125,5C2.977,5.036.256,4.531,0,7.428V39.814a2.458,2.458,0,0,0,1.174,2.095l.092,30.725c.509,2.554,2.947,2.129,4.97,2.114-.035,2.263-.382,4.77,2.562,4.988l48.748-.006A2.506,2.506,0,0,0,59.8,77.473l.006-63.819c-.3-2.755-2.859-2.478-4.99-2.405M2.342,39.808V7.357H4.989V19.263a6.673,6.673,0,0,0,2.5,4.345,6.215,6.215,0,0,0,9.2-2.138c.784-1.585.806-6.431.6-8.277-.434-3.824-5.864-4.293-7.081-.7-.391,1.157-.741,5.975,1.561,4.672,1.292-.732-.314-4,1.356-4.713a1.29,1.29,0,0,1,1.835,1.2,37.74,37.74,0,0,1-.021,5.752c-.555,4.072-7.171,4.268-7.614-.612A93.91,93.91,0,0,1,7.32,6.184C7.7,1.729,13.221.946,14.8,5.022H10.829c-1.027,0-1.027,2.335,0,2.335H34.81l.234.233V39.808l-.234.234H2.576ZM3.588,72.414V42.376H34.81c.052,0,.93-.193,1.02-.226a3.025,3.025,0,0,0,1.55-2.186V8.6h15.1V61.208H43.063c-.507,0-1.791,1.155-1.791,1.634v9.572Zm47.028-8.871-7.007,7v-7Zm6.852,13.852H8.571V74.749h33.4a5.165,5.165,0,0,0,1.948-1.01c3.386-2.725,6.439-6.943,9.812-9.8a4.217,4.217,0,0,0,1.046-2.223l.043-46.879a3.885,3.885,0,0,0,0-1.229v-.022h2.644Z" transform="translate(0 0)" fill="url(#linear-gradient)"/>
      <path id="Path_95" data-name="Path 95" d="M85.351,254.634h27.258c1.608-.188,1.659-2.174.316-2.346l-28.161.041c-1.194.713-.737,2.151.587,2.305" transform="translate(-66.584 -199.804)" fill="url(#linear-gradient)"/>
      <path id="Path_96" data-name="Path 96" d="M85.715,224.71l26.79-.006c1.53-.066,2.119-1.874.475-2.342l-28.161.041c-1.326.852-.527,2.352.9,2.308" transform="translate(-66.638 -176.103)" fill="url(#linear-gradient)"/>
      <path id="Path_97" data-name="Path 97" d="M102.776,282.235l-17.878.037c-1.4.519-.956,2.143.43,2.3H102.62c1.489-.149,1.8-2.153.156-2.342" transform="translate(-66.561 -223.521)" fill="url(#linear-gradient)"/>
      <path id="Path_98" data-name="Path 98" d="M46.115,282.105a15.981,15.981,0,0,0-3.2,0,1.162,1.162,0,0,0-.535,1.946c.455.456,2.943.466,3.583.322a1.19,1.19,0,0,0,.155-2.269" transform="translate(-33.295 -223.354)" fill="url(#linear-gradient)"/>
      <path id="Path_99" data-name="Path 99" d="M205,80.12a15.955,15.955,0,0,0,3.2,0,1.186,1.186,0,0,0,.535-1.947c-.453-.456-2.944-.465-3.583-.322A1.19,1.19,0,0,0,205,80.12" transform="translate(-161.748 -61.591)" fill="url(#linear-gradient)"/>
      <path id="Path_100" data-name="Path 100" d="M205.235,109.98c.856.1,3.2.22,3.628-.582,1.041-1.954-2.658-1.967-3.748-1.723a1.167,1.167,0,0,0,.12,2.3" transform="translate(-161.707 -85.189)" fill="url(#linear-gradient)"/>
      <path id="Path_101" data-name="Path 101" d="M46.325,252.248a17.318,17.318,0,0,0-3.481-.036c-1.017.3-.874,1.907.193,2.233.617.188,3.02.165,3.517-.237.572-.463.554-1.705-.229-1.959" transform="translate(-33.385 -199.687)" fill="url(#linear-gradient)"/>
      <path id="Path_102" data-name="Path 102" d="M208.258,137.856a8.532,8.532,0,0,0-2.933-.107c-1.279.229-1.412,1.913-.436,2.229a17.494,17.494,0,0,0,3.353.065,1.139,1.139,0,0,0,.015-2.186" transform="translate(-161.758 -109.032)" fill="url(#linear-gradient)"/>
      <path id="Path_103" data-name="Path 103" d="M42.929,224.443a6.843,6.843,0,0,0,3.506-.1c.674-.434.675-1.76-.138-2.024a17.337,17.337,0,0,0-3.481-.036,1.152,1.152,0,0,0,.112,2.158" transform="translate(-33.357 -175.987)" fill="url(#linear-gradient)"/>
      <path id="Path_104" data-name="Path 104" d="M205.214,169.99c.633.075,2.956.1,3.363-.224a1.128,1.128,0,0,0-.39-1.969,7.637,7.637,0,0,0-2.773-.1c-1.645.244-1.633,2.127-.2,2.3" transform="translate(-161.687 -132.748)" fill="url(#linear-gradient)"/>
      <path id="Path_105" data-name="Path 105" d="M56.993,137.858l-19.9.033c-1.262.435-1.445,1.956-.041,2.31l20.255,0c1.678-.193,1.241-2.368-.315-2.338" transform="translate(-28.567 -109.179)" fill="url(#linear-gradient)"/>
      <path id="Path_106" data-name="Path 106" d="M102.99,80.011a48.3,48.3,0,0,0,6.808.024,1.176,1.176,0,0,0-.023-2.292,49.662,49.662,0,0,0-6.63,0c-1.152.257-1.379,2-.155,2.268" transform="translate(-80.916 -61.482)" fill="url(#linear-gradient)"/>
      <path id="Path_107" data-name="Path 107" d="M102.99,109.937a48.3,48.3,0,0,0,6.808.024,1.176,1.176,0,0,0-.023-2.292,49.662,49.662,0,0,0-6.63,0c-1.152.257-1.379,2-.155,2.268" transform="translate(-80.916 -85.182)" fill="url(#linear-gradient)"/>
    </g>
  </g>
</svg>
