<svg xmlns="http://www.w3.org/2000/svg" xmlns:xlink="http://www.w3.org/1999/xlink" width="186" height="92" viewBox="0 0 186 92">
  <defs>
    <linearGradient id="linear-gradient" x1="0.121" y1="0.788" x2="0.881" y2="0.853" gradientUnits="objectBoundingBox">
      <stop offset="0" stop-color="#f47920"/>
      <stop offset="1" stop-color="#e31f2b"/>
    </linearGradient>
    <clipPath id="clip-path">
      <rect id="Rectangle_125" data-name="Rectangle 125" width="186" height="92" transform="translate(1069 2311)" fill="url(#linear-gradient)"/>
    </clipPath>
    <clipPath id="clip-path-2">
      <rect id="Rectangle_124" data-name="Rectangle 124" width="78" height="68.721" fill="url(#linear-gradient)"/>
    </clipPath>
  </defs>
  <g id="Mask_Group_20" data-name="Mask Group 20" transform="translate(-1069 -2311)" clip-path="url(#clip-path)">
    <g id="Group_141" data-name="Group 141" transform="translate(1123 2323)">
      <g id="Group_140" data-name="Group 140" clip-path="url(#clip-path-2)">
        <path id="Path_122" data-name="Path 122" d="M42.617,195.489c.194.146,1.549-.607,1.835-.758,4.248-2.234,13.087-8.694,17.419-8.839,4.989-.167,7.161,5.2,3.785,8.658-7.415,4.348-14.7,9.67-22.205,13.8a10.134,10.134,0,0,1-6.1,1.6L19.969,205.49l-1.722,1.1c.952,1.6,1.976,3.148.695,4.932a19.987,19.987,0,0,1-4.306,2.77,3.146,3.146,0,0,1-4.38-1.454C7.382,207.28,3.763,201.928.92,196.382c-.786-1.534-1.578-3.206-.05-4.665a31.134,31.134,0,0,1,4.485-2.591c2.219-.761,3.608.667,4.422,2.569l.334,0c2.918-1.565,5.737-3.5,8.657-5.035a16.527,16.527,0,0,1,4.346-1.787c3.584-.715,8.567,1.882,12.15,2.956,1.349.4,2.748.6,4.053.979,3.036.872,4.632,3.7,3.3,6.683M16.831,204.3c.286.213,2.578-1.715,3.214-1.42,5.4,1.088,10.908,3.3,16.28,4.331a7.018,7.018,0,0,0,4.984-.523L64,192.732c1.232-1.169.96-3.752-.809-4.211-1.855-.481-3.971.6-5.58,1.438-3.588,1.861-12.195,7.991-15.559,8.342-2.934.306-9.825-1.276-12.635-2.422-1.539-.628-1.315-2.542.541-2.435,2.271.131,5.418,1.871,7.869,2.043,3.384.237,3.618-3.375,1.054-4.2-1.375-.441-3.085-.667-4.557-1.1-2.6-.77-5.537-2.217-8.051-2.8a7.377,7.377,0,0,0-5.355.946c-3.282,1.607-6.427,3.985-9.737,5.6ZM6.882,191.6a.628.628,0,0,0-.59-.13A33.319,33.319,0,0,0,2.6,193.6a.54.54,0,0,0-.046.511l10.025,17.774.682.242c.6-.459,3.555-1.745,3.709-2.286a.716.716,0,0,0,0-.4Z" transform="translate(0 -145.938)" fill="url(#linear-gradient)"/>
        <path id="Path_123" data-name="Path 123" d="M170.512,7.7c.382.245,5.667-.169,6.783.057a2.887,2.887,0,0,1,2.09,3.275c-.435,2.169-4.667,3.775-6.033,5.438.309,1.92,2.3,5.323,1.943,7.142-.417,2.1-2.618,2.695-4.383,1.692-.727-.413-4.711-3.628-5.037-3.571l-5.289,3.836a2.835,2.835,0,0,1-3.735-1.3c-.949-2.217,1.467-5.654,1.673-7.952-.118-.367-4.761-3.187-5.461-4.142a2.818,2.818,0,0,1,1.8-4.442c1.077-.148,6.095.2,6.518-.086,1.241-2.086,1.2-7.328,4.159-7.633,3.884-.4,3.664,5.2,4.976,7.683m-8.749,2.538h-6.683c-.055.324.036.415.234.631,1.186,1.3,4.357,2.584,5.341,4.094,1.221,1.874-1.048,5.6-1.448,7.657-.048.248-.2.745.2.672.755-.139,3.941-3.011,5.06-3.59a2.583,2.583,0,0,1,2.775-.162c.868.4,4.957,3.827,5.368,3.749.228-.043.208-.283.172-.478-.324-1.791-1.767-4.329-1.944-6.094a2.892,2.892,0,0,1,.907-2.316c1.341-1.323,3.632-2.45,5.117-3.689l-.161-.475h-6.447c-3.069-.876-2.812-5.257-4.089-7.706l-.518.268c-.985,1.98-1.255,7-3.884,7.438" transform="translate(-120.483 0.001)" fill="url(#linear-gradient)"/>
        <path id="Path_124" data-name="Path 124" d="M75.673,69.647c2.03.241,6.5-.879,7.023,2.018.451,2.5-3.063,3.789-4.675,5.087.326,1.395,1.411,3.448,1.557,4.8a2.623,2.623,0,0,1-1.165,2.425c-2.405,1.354-4.445-1.925-6.443-2.687-1.845.954-4.482,4.4-6.682,2.437-1.966-1.757.45-4.826.6-6.874-1.264-1.574-4.606-2.409-4.55-4.753.082-3.386,4.915-2.233,7.073-2.454.733-1.87.875-5.88,3.559-5.966,2.749-.089,2.952,4.094,3.706,5.967m-6.541,2.532c-1.339.269-3.515-.2-4.953,0-.1.369.088.264.2.36,1.424,1.229,4.393,2.314,4.169,4.547-.07.7-1.537,4.326-1.38,4.527,1.333-.708,3.41-3.044,4.946-2.995,1.467.047,3.5,2.308,4.8,2.995-.151-1.578-1.652-3.831-1.345-5.354.281-1.4,3-2.837,4.135-3.721.13-.1.286.005.2-.36H74.95a6.763,6.763,0,0,1-.786-.472c-.985-.773-1.437-3.418-1.925-4.686-.065-.169.05-.447-.275-.347-.262.081-1.015,4.221-2.046,5.033a5.141,5.141,0,0,1-.786.472" transform="translate(-48.45 -50.302)" fill="url(#linear-gradient)"/>
        <path id="Path_125" data-name="Path 125" d="M283.767,69.647c2.03.241,6.5-.879,7.023,2.018.455,2.529-3.073,3.757-4.675,5.087.393,1.923,2.47,5.076.94,6.785-2.191,2.448-5.051-1.469-6.992-2.247-1.912.951-4.4,4.4-6.682,2.437-1.985-1.707.461-4.853.6-6.874-1.27-1.558-4.606-2.408-4.55-4.753.082-3.386,4.915-2.234,7.074-2.453.686-1.893.935-5.882,3.558-5.967,2.751-.089,2.934,4.1,3.706,5.967M288,72.179h-4.953a6.748,6.748,0,0,1-.786-.472c-1.162-.913-1.337-3.452-1.961-4.8-.072-.156-.091-.369-.318-.388-.361,1.271-.945,4.254-1.881,5.118a5.892,5.892,0,0,1-.872.543h-4.953c-.1.369.088.264.2.36,1.384,1.194,4.443,2.388,4.172,4.55-.081.65-1.536,4.327-1.383,4.524,1.3-.722,3.444-3.043,4.946-2.995,1.447.046,3.5,2.321,4.8,2.995-.151-1.578-1.652-3.831-1.345-5.354.281-1.4,3-2.837,4.135-3.721.13-.1.286.005.2-.36" transform="translate(-212.83 -50.302)" fill="url(#linear-gradient)"/>
      </g>
    </g>
  </g>
</svg>
